<svg width="22" height="21" viewBox="0 0 22 21" fill="none" xmlns="http://www.w3.org/2000/svg">
<path d="M10.9999 11.3639C11.5062 11.3639 11.9166 10.9735 11.9166 10.4918C11.9166 10.0102 11.5062 9.61975 10.9999 9.61975C10.4937 9.61975 10.0833 10.0102 10.0833 10.4918C10.0833 10.9735 10.4937 11.3639 10.9999 11.3639Z" stroke="#0E1726" stroke-width="2" stroke-linecap="round" stroke-linejoin="round"/>
<path d="M17.4167 11.3639C17.9229 11.3639 18.3333 10.9735 18.3333 10.4918C18.3333 10.0102 17.9229 9.61975 17.4167 9.61975C16.9104 9.61975 16.5 10.0102 16.5 10.4918C16.5 10.9735 16.9104 11.3639 17.4167 11.3639Z" stroke="#0E1726" stroke-width="2" stroke-linecap="round" stroke-linejoin="round"/>
<path d="M4.58341 11.3639C5.08968 11.3639 5.50008 10.9735 5.50008 10.4918C5.50008 10.0102 5.08968 9.61975 4.58341 9.61975C4.07715 9.61975 3.66675 10.0102 3.66675 10.4918C3.66675 10.9735 4.07715 11.3639 4.58341 11.3639Z" stroke="#0E1726" stroke-width="2" stroke-linecap="round" stroke-linejoin="round"/>
</svg>
