<svg width="24" height="24" viewBox="0 0 24 24" fill="none" xmlns="http://www.w3.org/2000/svg">
<path fill-rule="evenodd" clip-rule="evenodd" d="M0 0.705882C0 0.316034 0.374831 0 0.837209 0H23.1628C23.6252 0 24 0.316034 24 0.705882C24 1.09573 23.6252 1.41176 23.1628 1.41176H0.837209C0.374831 1.41176 0 1.09573 0 0.705882Z" fill="#1C274C"/>
<path fill-rule="evenodd" clip-rule="evenodd" d="M15.9872 7.32466C16.318 7.67909 16.318 8.25372 15.9872 8.60815L14.527 10.1726C14.527 10.1726 14.527 10.1726 14.527 10.1726C14.5179 10.1824 14.5087 10.1922 14.4995 10.2021C14.3358 10.3777 14.1587 10.5675 13.9891 10.7062C13.7904 10.8686 13.5061 11.0435 13.1294 11.0435C12.7528 11.0435 12.4684 10.8686 12.2697 10.7062C12.1001 10.5675 11.9231 10.3777 11.7593 10.2021C11.7501 10.1922 11.741 10.1824 11.7319 10.1727L11.0702 9.46382L11.0702 9.46377C10.9911 9.379 10.9269 9.31032 10.8706 9.25186C10.8142 9.31032 10.7501 9.379 10.671 9.46377L9.21073 11.0283C8.87993 11.3827 8.3436 11.3827 8.0128 11.0283C7.68201 10.6739 7.68201 10.0992 8.01281 9.74482L9.47299 8.18036C9.473 8.18034 9.47301 8.18033 9.47303 8.18032C9.48208 8.17062 9.49118 8.16086 9.50032 8.15106C9.66412 7.9754 9.84124 7.78546 10.0109 7.64674C10.2097 7.4843 10.494 7.30946 10.8706 7.30946C11.2472 7.30946 11.5315 7.4843 11.7302 7.64674C11.8999 7.78546 12.0771 7.9754 12.2409 8.15106C12.25 8.16086 12.2591 8.17061 12.2681 8.18031C12.2682 8.18033 12.2682 8.18034 12.2682 8.18036L12.9298 8.88915C13.0089 8.97392 13.0731 9.04263 13.1294 9.1011C13.1858 9.04263 13.2499 8.97394 13.3291 8.88917L14.7893 7.32465C15.1201 6.97023 15.6564 6.97023 15.9872 7.32466Z" fill="#1C274C"/>
<path opacity="0.5" fill-rule="evenodd" clip-rule="evenodd" d="M12 16.9412C12.4252 16.9412 12.77 17.3058 12.77 17.7556V21.596L14.3977 22.4569C14.7781 22.658 14.9322 23.1473 14.7421 23.5496C14.5519 23.9519 14.0893 24.115 13.709 23.9138L12 23.01L10.291 23.9138C9.91062 24.115 9.4481 23.9519 9.25791 23.5496C9.06773 23.1473 9.2219 22.658 9.60227 22.4569L11.23 21.596V17.7556C11.23 17.3058 11.5747 16.9412 12 16.9412Z" fill="#1C274C"/>
<path fill-rule="evenodd" clip-rule="evenodd" d="M3.81179 0.705872V10.2297C3.81179 11.9713 3.81379 13.1884 3.94517 14.1073C4.07241 14.9973 4.30597 15.4829 4.68164 15.8362C5.0637 16.1954 5.59892 16.4232 6.56742 16.5457C7.55585 16.6706 8.86111 16.6723 10.7092 16.6723H13.2908C15.1389 16.6723 16.4442 16.6706 17.4326 16.5457C18.4011 16.4232 18.9364 16.1954 19.3184 15.8362C19.6941 15.4829 19.9277 14.9973 20.0549 14.1073C20.1863 13.1884 20.1883 11.9713 20.1883 10.2297V0.705872H21.8824V10.2946C21.8824 11.956 21.8824 13.2927 21.7322 14.3433C21.5759 15.4366 21.2424 16.3426 20.4839 17.0559C19.7318 17.7632 18.7872 18.0687 17.6468 18.2129C16.5387 18.353 15.1253 18.3529 13.3508 18.3529H10.6493C8.87476 18.3529 7.46129 18.353 6.35325 18.2129C5.21282 18.0687 4.26826 17.7632 3.51617 17.0559C2.75767 16.3426 2.42415 15.4366 2.26784 14.3433C2.11763 13.2927 2.11765 11.956 2.11768 10.2946L2.11768 0.705872H3.81179Z" fill="#1C274C"/>
</svg>
