<svg width="19" height="23" viewBox="0 0 19 23" fill="none" xmlns="http://www.w3.org/2000/svg">
<path fill-rule="evenodd" clip-rule="evenodd" d="M1.62857 4.0676V3.8H0V18.7859C0 21.0029 1.82285 22.8 4.07143 22.8H14.9286C17.1772 22.8 19 21.0029 19 18.7859V8.08169C19 5.86478 17.1772 4.0676 14.9286 4.0676H1.62857ZM1.62857 5.67324V18.7859C1.62857 20.1161 2.72227 21.1944 4.07143 21.1944H14.9286C16.2778 21.1944 17.3714 20.1161 17.3714 18.7859V8.08169C17.3714 6.75153 16.2778 5.67324 14.9286 5.67324H1.62857Z" fill="#1C274D"/>
<path d="M15.911 4.55188V5.32H16.72V4.55188H15.911ZM1.96441 5.32H15.911V3.78376H1.96441V5.32ZM16.72 4.55188V2.81697H15.1019V4.55188H16.72ZM13.334 0.0288358L1.68659 1.60861L1.91542 3.12941L13.5628 1.54963L13.334 0.0288358ZM1.68659 1.60861C0.718831 1.73987 0 2.52678 0 3.45493H1.61806C1.61806 3.29129 1.7448 3.15256 1.91542 3.12941L1.68659 1.60861ZM16.72 2.81697C16.72 1.10303 15.1211 -0.213552 13.334 0.0288358L13.5628 1.54963C14.3752 1.43946 15.1019 2.0379 15.1019 2.81697H16.72ZM1.96441 3.78376C1.77313 3.78376 1.61806 3.63653 1.61806 3.45493H0C0 4.48498 0.879494 5.32 1.96441 5.32V3.78376Z" fill="#1C274D"/>
<path opacity="0.5" fill-rule="evenodd" clip-rule="evenodd" d="M4.56 11.4C4.56 10.9803 4.90922 10.64 5.34 10.64H13.66C14.0908 10.64 14.44 10.9803 14.44 11.4C14.44 11.8197 14.0908 12.16 13.66 12.16H5.34C4.90922 12.16 4.56 11.8197 4.56 11.4Z" fill="#1C274D"/>
<path opacity="0.5" fill-rule="evenodd" clip-rule="evenodd" d="M4.56 14.82C4.56 14.1904 4.92457 13.68 5.37428 13.68H11.3457C11.7954 13.68 12.16 14.1904 12.16 14.82C12.16 15.4496 11.7954 15.96 11.3457 15.96H5.37428C4.92457 15.96 4.56 15.4496 4.56 14.82Z" fill="#1C274D"/>
</svg>
