<svg width="21" height="21" viewBox="0 0 21 21" fill="none" xmlns="http://www.w3.org/2000/svg">
<path opacity="0.5" fill-rule="evenodd" clip-rule="evenodd" d="M6.86609 3.17845C6.86609 3.17845 6.8661 3.17845 6.86609 3.17845L4.91255 4.39097C3.97403 4.97347 3.31516 5.38337 2.82373 5.75976C2.34558 6.12596 2.07047 6.42819 1.88232 6.77188C1.69353 7.11674 1.58333 7.5199 1.52528 8.13756C1.47982 8.62121 1.46869 9.20174 1.46597 9.95395V12.1847C1.46597 14.1098 1.46742 15.4825 1.60289 16.5248C1.73594 17.5485 1.98655 18.1424 2.40431 18.5745L2.40437 18.5745C2.81881 19.0033 3.38303 19.2579 4.36103 19.3939C5.36273 19.5332 6.68387 19.5349 8.54704 19.5349H12.4538C14.3169 19.5349 15.638 19.5332 16.6397 19.3939C17.6178 19.2579 18.1821 19.0033 18.5965 18.5745C19.0143 18.1422 19.2649 17.5483 19.398 16.5247C19.5335 15.4824 19.5349 14.1098 19.5349 12.1847V10.6991C19.5349 9.56796 19.5342 8.76975 19.4747 8.13727C19.4167 7.51961 19.3065 7.11645 19.1177 6.77158C18.9295 6.42789 18.6544 6.12567 18.1763 5.75946C17.6849 5.38309 17.026 4.9732 16.0875 4.39072C16.0875 4.3907 16.0875 4.39069 16.0875 4.39068L14.134 3.17849L14.1339 3.17845C13.1417 2.56265 12.4441 2.13075 11.861 1.84718C11.2928 1.5709 10.8905 1.46511 10.5 1.46511C10.1095 1.46511 9.70715 1.5709 9.13902 1.84718C8.55588 2.13075 7.85827 2.56265 6.86609 3.17845ZM0.00087947 11.7158L3.96217e-07 11.7161L1.72662e-07 10.6636C-7.76353e-06 9.57635 -1.41329e-05 8.70943 0.0666162 8.00047C0.13537 7.26891 0.278772 6.65002 0.597198 6.06834C0.916265 5.4855 1.35787 5.037 1.9329 4.59659C2.48824 4.17126 3.20878 3.72407 4.10873 3.16551L4.13994 3.14614L6.09349 1.93362L6.12659 1.91307C7.07777 1.32271 7.8392 0.850113 8.49831 0.529596C9.18004 0.198074 9.80839 0 10.5 0C11.1916 0 11.82 0.198074 12.5017 0.529596C13.1608 0.850115 13.9222 1.32271 14.8734 1.91308L14.9064 1.93357L14.9065 1.93361L16.86 3.14581L16.8601 3.14584L16.8912 3.1652C17.7912 3.72376 18.5118 4.17096 19.0671 4.5963C19.6421 5.03671 20.0837 5.4852 20.4028 6.06805C20.7212 6.64972 20.8646 7.26862 20.9334 8.00018C21 8.70913 21 9.57604 21 10.6632V12.2384C21 14.098 21 15.5658 20.8509 16.7135C20.6978 17.8908 20.3763 18.8412 19.6499 19.5928C18.9201 20.3478 17.9913 20.6851 16.8416 20.845C15.7272 21 14.3041 21 12.5106 21H8.49025C6.69667 21 5.27351 21 4.1592 20.845C3.00948 20.6851 2.08079 20.3478 1.35101 19.5928C0.624533 18.8414 0.303029 17.8909 0.150018 16.7136C0.000854762 15.5659 0.000865554 14.098 0.000879246 12.2384L0.00087947 11.7158Z" fill="#1C274C"/>
<path fill-rule="evenodd" clip-rule="evenodd" d="M7 16.5C7 16.2239 7.3134 16 7.7 16H13.3C13.6866 16 14 16.2239 14 16.5C14 16.7761 13.6866 17 13.3 17H7.7C7.3134 17 7 16.7761 7 16.5Z" fill="#1C274C"/>
</svg>
