<svg width="112" height="30" viewBox="0 0 112 30" fill="none" xmlns="http://www.w3.org/2000/svg">
<g clip-path="url(#clip0_18_94387)">
<path d="M30.1551 15.0238C30.1822 16.6226 29.5927 21.156 28.0205 21.8171C26.1841 22.6334 22.5723 21.156 22.281 24.0298C22.0099 25.514 22.6333 27.5243 21.3729 28.543C19.462 29.6629 17.158 29.9799 14.8676 30.0002C7.76595 29.9799 1.42326 24.5898 0.264497 17.6548C-1.55157 8.41932 6.2887 -0.546273 15.7417 0.0271475C23.6227 0.263262 30.2296 7.05661 30.1551 14.9766V15.017V15.0238Z" fill="#155EEF"/>
<path d="M13.9526 23.5912C13.2275 23.2539 12.6041 22.5658 11.6757 21.6551C10.6525 20.6364 9.47341 19.4626 8.42307 18.4169C7.50148 17.486 6.79674 16.8518 6.45114 16.1232C5.81416 14.801 6.45114 13.472 7.52858 12.4736C9.0736 10.922 11.0049 9.00608 12.5363 7.48821C13.5799 6.42232 14.6438 5.85564 15.9991 6.32787C16.7783 6.61121 17.4221 7.30606 18.364 8.23028C19.5228 9.38387 20.7629 10.6184 21.9081 11.7585C23.0804 12.8918 24.4085 14.1399 23.819 15.8332C23.5547 16.6157 22.9313 17.2026 22.3485 17.803C21.759 18.3899 20.9933 19.1522 20.2072 19.9348C19.3127 20.8253 18.5402 21.6011 17.8016 22.3297C16.758 23.4495 15.4569 24.2658 13.9865 23.6114L13.9594 23.5979L13.9526 23.5912Z" fill="white"/>
<path d="M44.1007 25.5543C39.7028 25.5543 36.5111 22.3229 36.5111 18.0796C36.5111 13.8363 39.7028 10.6589 44.1007 10.6589C47.787 10.6589 50.7483 12.993 51.4395 16.474H48.4037C47.7531 14.6728 46.2352 13.4315 44.1007 13.4315C41.4104 13.4315 39.5266 15.4216 39.5266 18.1201C39.5266 20.8185 41.4104 22.7682 44.1007 22.7682C46.2691 22.7682 47.848 21.4662 48.4443 19.5907H51.4395C50.7483 23.1662 47.848 25.5611 44.1007 25.5611V25.5543Z" fill="black"/>
<path d="M55.8577 19.1995V25.2642H53.1132V15.4351H55.8577V17.0205C56.5692 15.9276 57.6805 15.1653 59.0629 15.1653V18.1875C57.7008 18.1875 56.4336 18.7205 55.8577 19.1995Z" fill="black"/>
<path d="M63.6166 29.0893H61.7734L61.2517 26.9642H63.3252C63.9622 26.9642 64.3078 26.7146 64.4569 26.1412L64.7279 25.1293H62.1326L59.8286 15.4351H62.6137L64.1316 23.011H65.1277L66.6456 15.4351H69.4511L66.7608 26.6067C66.3746 28.2527 65.4327 29.096 63.6098 29.096L63.6166 29.0893Z" fill="black"/>
<path d="M73.4017 23.6182V29.0893H70.7318V15.4351H73.4017V17.1149C74.1539 15.8939 75.3397 15.1653 76.7086 15.1653C79.2633 15.1653 81.303 17.3848 81.303 20.3665C81.303 23.3483 79.2633 25.5476 76.7086 25.5476C75.3669 25.5476 74.1742 24.819 73.4017 23.6182ZM73.4017 19.2804V21.4257C73.8625 22.3432 74.8586 23.092 76.0513 23.092C77.4743 23.092 78.606 21.9654 78.606 20.3733C78.606 18.7812 77.4743 17.6209 76.0513 17.6209C74.8586 17.6209 73.8828 18.3832 73.4017 19.2872V19.2804Z" fill="black"/>
<path d="M86.5411 17.5939V25.2643H83.7967V17.5939H82.0891V15.4352H83.7967V12.6827H86.5411V15.4352H88.2691V17.5939H86.5411Z" fill="black"/>
<path d="M97.031 23.6182C96.2788 24.8392 95.0929 25.5476 93.7241 25.5476C91.1694 25.5476 89.15 23.3281 89.15 20.3261C89.15 17.324 91.1694 15.1653 93.7241 15.1653C95.0861 15.1653 96.2788 15.8736 97.031 17.0744V15.4284H99.7009V25.2575H97.031V23.6114V23.6182ZM94.3814 23.0852C95.574 23.0852 96.5702 22.3364 97.031 21.4594V19.2399C96.5498 18.3629 95.574 17.6141 94.3814 17.6141C92.9787 17.6141 91.847 18.7407 91.847 20.3328C91.847 21.9249 92.9787 23.0852 94.3814 23.0852Z" fill="black"/>
<path d="M108.693 29.0893H103.218V26.9845H108.503C109.025 26.9845 109.33 26.7146 109.33 26.1412V23.5575C108.578 24.7245 107.392 25.4126 106.023 25.4126C103.469 25.4126 101.449 23.2674 101.449 20.3665C101.449 17.4657 103.469 15.1653 106.023 15.1653C107.385 15.1653 108.578 15.8736 109.33 17.0947V15.4284H112V26.2154C112 27.9762 110.943 29.0825 108.693 29.0825V29.0893ZM106.674 23.0852C107.866 23.0852 108.842 22.3566 109.323 21.4594V19.2602C108.863 18.3832 107.86 17.6141 106.674 17.6141C105.271 17.6141 104.139 18.761 104.139 20.3665C104.139 21.9721 105.271 23.0852 106.674 23.0852Z" fill="black"/>
</g>
<defs>
<clipPath id="clip0_18_94387">
<rect width="112" height="30" fill="white"/>
</clipPath>
</defs>
</svg>
