<svg width="40" height="40" viewBox="0 0 35 35" fill="none" xmlns="http://www.w3.org/2000/svg">
<g clip-path="url(#clip0_18_94387)">
<path d="M30.1551 15.0238C30.1822 16.6226 29.5927 21.156 28.0205 21.8171C26.1841 22.6334 22.5723 21.156 22.281 24.0298C22.0099 25.514 22.6333 27.5243 21.3729 28.543C19.462 29.6629 17.158 29.9799 14.8676 30.0002C7.76595 29.9799 1.42326 24.5898 0.264497 17.6548C-1.55157 8.41932 6.2887 -0.546273 15.7417 0.0271475C23.6227 0.263262 30.2296 7.05661 30.1551 14.9766V15.017V15.0238Z" fill="#155EEF"/>
<path d="M13.9526 23.5912C13.2275 23.2539 12.6041 22.5658 11.6757 21.6551C10.6525 20.6364 9.47341 19.4626 8.42307 18.4169C7.50148 17.486 6.79674 16.8518 6.45114 16.1232C5.81416 14.801 6.45114 13.472 7.52858 12.4736C9.0736 10.922 11.0049 9.00608 12.5363 7.48821C13.5799 6.42232 14.6438 5.85564 15.9991 6.32787C16.7783 6.61121 17.4221 7.30606 18.364 8.23028C19.5228 9.38387 20.7629 10.6184 21.9081 11.7585C23.0804 12.8918 24.4085 14.1399 23.819 15.8332C23.5547 16.6157 22.9313 17.2026 22.3485 17.803C21.759 18.3899 20.9933 19.1522 20.2072 19.9348C19.3127 20.8253 18.5402 21.6011 17.8016 22.3297C16.758 23.4495 15.4569 24.2658 13.9865 23.6114L13.9594 23.5979L13.9526 23.5912Z" fill="white"/>
</g>
<defs>
<clipPath id="clip0_18_94387">
<rect width="40" height="40" fill="white"/>
</clipPath>
</defs>
</svg>
