<svg width="24" height="24" viewBox="0 0 24 24" fill="none" xmlns="http://www.w3.org/2000/svg">
<path opacity="0.4" fill-rule="evenodd" clip-rule="evenodd" d="M13.7616 1.82054C6.68121 0.652587 0.652554 6.68125 1.82056 13.7617C2.52143 18.0081 5.94057 21.4475 10.1747 22.1694C10.8341 22.2793 11.4722 22.3317 12.0938 22.3251C11.5005 21.2491 11.1632 20.0109 11.1632 18.6976C11.1632 14.5406 14.5406 11.1632 18.6976 11.1632C20.0109 11.1632 21.2491 11.5005 22.3251 12.0938C22.3317 11.4723 22.2793 10.8344 22.1695 10.1752C21.4478 5.94083 18.0083 2.52149 13.7617 1.82056M0.168574 14.0342C-1.18604 5.82253 5.82255 -1.18604 14.0342 0.168575L14.0342 0.168586C18.9847 0.985647 22.9788 4.95496 23.8203 9.89529L23.8208 9.89822C23.9987 10.9659 24.0481 12.01 23.9512 13.0388C23.951 13.0418 23.9507 13.0449 23.9503 13.0479C23.9246 13.2922 23.8842 13.541 23.8128 13.7983C23.7364 14.0732 23.5253 14.2903 23.2526 14.3743C22.9799 14.4583 22.6832 14.3976 22.4654 14.2133C21.4508 13.3548 20.1341 12.8375 18.6976 12.8375C15.4653 12.8375 12.8375 15.4653 12.8375 18.6976C12.8375 20.1341 13.3548 21.4508 14.2133 22.4654C14.3976 22.6832 14.4583 22.9799 14.3743 23.2526C14.2903 23.5253 14.0732 23.7364 13.7983 23.8128C13.541 23.8842 13.2922 23.9246 13.0479 23.9503C13.0449 23.9507 13.0418 23.951 13.0387 23.9512C12.01 24.0481 10.9658 23.9987 9.89821 23.8208L9.89528 23.8203C4.95497 22.9788 0.985647 18.9847 0.168586 14.0342L0.168574 14.0342Z" fill="#292D32"/>
<path fill-rule="evenodd" clip-rule="evenodd" d="M18.6876 12.6377C15.3506 12.6377 12.6377 15.3506 12.6377 18.6876C12.6377 19.9497 13.0245 21.1223 13.686 22.0892C13.9015 21.9711 14.102 21.8205 14.2852 21.6373L21.6373 14.2852C21.8205 14.102 21.9711 13.9015 22.0892 13.686C21.1223 13.0245 19.9497 12.6377 18.6876 12.6377ZM10.9091 18.6876C10.9091 14.3959 14.3959 10.9091 18.6876 10.9091C20.5925 10.9091 22.3445 11.5966 23.694 12.7385C23.9534 12.9579 24.0601 13.309 23.9667 13.6357C23.7642 14.3445 23.3875 14.9794 22.8595 15.5074L15.5074 22.8595C14.9794 23.3875 14.3445 23.7642 13.6357 23.9667C13.309 24.0601 12.9579 23.9534 12.7385 23.694C11.5966 22.3445 10.9091 20.5925 10.9091 18.6876Z" fill="#292D32"/>
</svg>
